<?xml version="1.0" encoding="UTF-8" standalone="no"?>
<svg
   width="24px"
   height="24px"
   viewBox="0 0 24 24"
   stroke-width="1.5"
   fill="none"
   color="#000000"
   version="1.1"
   id="svg16"
   sodipodi:docname="3d-add-hole-color.svg"
   inkscape:version="1.2.1 (9c6d41e410, 2022-07-14)"
   xmlns:inkscape="http://www.inkscape.org/namespaces/inkscape"
   xmlns:sodipodi="http://sodipodi.sourceforge.net/DTD/sodipodi-0.dtd"
   xmlns="http://www.w3.org/2000/svg"
   xmlns:svg="http://www.w3.org/2000/svg">
  <defs
     id="defs20" />
  <sodipodi:namedview
     id="namedview18"
     pagecolor="#ffffff"
     bordercolor="#000000"
     borderopacity="0.25"
     inkscape:showpageshadow="2"
     inkscape:pageopacity="0.0"
     inkscape:pagecheckerboard="0"
     inkscape:deskcolor="#d1d1d1"
     showgrid="false"
     inkscape:zoom="12.330175"
     inkscape:cx="18.815629"
     inkscape:cy="13.057398"
     inkscape:window-width="1190"
     inkscape:window-height="715"
     inkscape:window-x="513"
     inkscape:window-y="113"
     inkscape:window-maximized="0"
     inkscape:current-layer="svg16" />
  <path
     d="M12 16a4 4 0 100-8 4 4 0 000 8z"
     stroke="#000000"
     stroke-width="1.5"
     stroke-linecap="round"
     stroke-linejoin="round"
     id="path12" />
  <path
     d="M21 7.353v9.294a.6.6 0 01-.309.525l-8.4 4.666a.6.6 0 01-.582 0l-8.4-4.666A.6.6 0 013 16.647V7.353a.6.6 0 01.309-.524l8.4-4.667a.6.6 0 01.582 0l8.4 4.667a.6.6 0 01.309.524zM3.528 7.294L8.4 10m12.1-2.722L15.6 10M12 21v-5"
     stroke="#000000"
     stroke-width="1.5"
     stroke-linecap="round"
     stroke-linejoin="round"
     id="path14" />
  <path
     style="fill:#00ffff;stroke-width:0.121653"
     d="M 11.530599,15.158738 C 10.212149,14.983 9.064819,13.829849 8.8411641,12.45566 8.5740864,10.814672 9.7897626,9.149791 11.475912,8.847346 c 1.350347,-0.2422119 2.836549,0.5503094 3.419389,1.823398 1.05149,2.296758 -0.843273,4.82408 -3.364702,4.487994 z"
     id="path264" />
  <path
     style="fill:#008000;stroke-width:0.121653"
     d="M 7.4613705,18.569929 3.852338,16.555728 3.8313227,12.460719 3.8103073,8.3657107 5.6386483,9.381742 c 1.4260266,0.79246 1.8191011,1.04542 1.7863503,1.149591 -0.1069053,0.340036 -0.2069337,1.049602 -0.2069337,1.467916 0,2.116339 1.4455536,4.031358 3.4673911,4.593479 l 0.5066,0.140847 v 1.933148 c 0,1.063231 -0.02737,1.929606 -0.06083,1.925278 -0.03345,-0.0043 -1.6848907,-0.914261 -3.6698585,-2.022072 z"
     id="path462" />
  <path
     style="fill:#008000;stroke-width:0.121653"
     d="M 6.4605567,8.0103141 C 5.4897106,7.4722116 4.7246722,7.0028752 4.7604712,6.9673444 4.7962702,6.9318135 6.4405009,6.0053195 8.4143172,4.9084686 l 3.5887568,-1.9942742 3.588757,1.9942742 c 1.973817,1.0968509 3.615982,2.0212801 3.649258,2.0542874 0.03328,0.033007 -0.731853,0.5022594 -1.700285,1.0427828 L 15.780018,8.9883084 15.269263,8.5105228 C 13.444879,6.8039013 10.568333,6.7972939 8.7528864,8.4955547 l -0.527155,0.4931277 z"
     id="path464" />
  <path
     style="fill:#008000;stroke-width:0.121653"
     d="m 12.814093,18.673481 v -1.939906 l 0.506599,-0.140847 c 0.27863,-0.07747 0.725704,-0.256616 0.993498,-0.398111 0.633191,-0.334561 1.549584,-1.254309 1.888316,-1.895229 0.538895,-1.019651 0.711996,-2.276975 0.460421,-3.344278 -0.06752,-0.286441 -0.09435,-0.547745 -0.05963,-0.580676 0.03472,-0.03293 0.856916,-0.497817 1.827097,-1.0330802 l 1.763965,-0.9732059 v 4.0820481 4.082048 l -3.621583,2.013538 c -1.99187,1.107446 -3.652431,2.025703 -3.690134,2.040571 -0.0377,0.01487 -0.06855,-0.845924 -0.06855,-1.912872 z"
     id="path466" />
  <path
     style="fill:#ff00ff;stroke-width:0.121653"
     d="M 6.6909026,8.0845783 C 4.8884773,7.0618921 4.8308973,7.0228614 4.965718,6.9151563 5.0224492,6.869835 6.4922031,6.0399205 8.2318377,5.0709018 9.9714724,4.101883 11.515507,3.2396862 11.663027,3.154909 11.810546,3.070132 11.96152,3.0007684 11.998524,3.0007684 c 0.07728,0 6.884269,3.7820509 7.04452,3.9140279 0.126094,0.1038459 -0.0081,0.192641 -1.923838,1.2727044 L 15.794578,8.9343171 15.500588,8.6578998 C 14.4466,7.6669146 13.364869,7.2180646 12.030577,7.2180646 c -0.8185,0 -1.371645,0.1114484 -2.0336788,0.4097488 C 9.5004285,7.8515135 8.7066743,8.4094797 8.4017471,8.7491182 8.3167732,8.8437651 8.2255336,8.9193306 8.1989925,8.9170416 8.1724514,8.9147525 7.4938109,8.5401441 6.6909026,8.0845783 Z"
     id="path193" />
  <path
     style="fill:#ff00ff;stroke-width:0.121653"
     d="M 7.5019211,18.533484 3.9334397,16.549761 3.8928888,12.512452 c -0.022303,-2.22052 -0.03925,-4.044692 -0.037661,-4.0537161 0.00438,-0.024847 2.7898331,1.5413221 3.1855641,1.7911361 0.3341049,0.210911 0.3435605,0.228341 0.2817647,0.519382 -0.035168,0.165632 -0.062751,0.757346 -0.061297,1.314922 0.0022,0.841431 0.033056,1.095561 0.1815332,1.494881 0.5377887,1.446348 1.6805801,2.553941 3.0944492,2.999138 l 0.614261,0.193418 0.02093,0.596223 c 0.01151,0.327923 -0.0067,1.170682 -0.04055,1.872797 l -0.06148,1.276573 z"
     id="path195" />
  <path
     style="fill:#00ffff;stroke-width:0.121653"
     d="m 12.853528,18.687096 c -0.03358,-1.029977 -0.02866,-1.856295 0.01127,-1.889995 0.03902,-0.03293 0.289919,-0.125827 0.557555,-0.206429 0.819708,-0.246865 1.26952,-0.52634 1.965557,-1.22123 1.066336,-1.064579 1.456841,-2.092172 1.371359,-3.60866 -0.02643,-0.468921 -0.07029,-0.963618 -0.09746,-1.099328 l -0.0494,-0.246745 1.770699,-0.9865957 1.7707,-0.9865957 0.02105,3.9871334 c 0.01649,3.124234 -0.0011,4.007243 -0.0811,4.080053 -0.05618,0.05111 -1.671472,0.960938 -3.589531,2.021846 -1.918058,1.06091 -3.5107,1.941918 -3.539203,1.957795 -0.0285,0.01588 -0.07868,-0.794685 -0.111495,-1.801249 z"
     id="path197" />
  <path
     style="fill:#00ffff;stroke-width:0.121653"
     d="M 7.4913491,18.472113 3.9933976,16.527689 3.9332553,12.558614 C 3.900177,10.375622 3.8866865,8.5769851 3.9032763,8.5616427 3.9369796,8.5304737 4.9158049,9.0698763 6.333854,9.9010646 L 7.274435,10.452385 7.235753,11.65748 c -0.03153,0.982289 -0.012919,1.294329 0.1006618,1.68774 0.221738,0.768038 0.6088289,1.412115 1.2198298,2.029666 0.6337168,0.64051 1.1943641,0.990009 2.0072704,1.251301 l 0.547438,0.175962 -0.008,1.391974 c -0.0044,0.765585 -0.03178,1.578823 -0.06083,1.807194 l -0.05281,0.41522 z"
     id="path268" />
  <path
     style="fill:#00ffff;stroke-width:0.121653"
     d="M 6.6872229,8.0225892 C 5.3092095,7.2489462 4.9507438,7.0164303 5.0331422,6.9496832 5.2821885,6.7479422 11.872831,3.0818703 11.986463,3.0818703 c 0.08986,0 3.528939,1.8786338 5.738297,3.1346026 1.36023,0.7732594 1.305774,0.7358869 1.211425,0.8313786 -0.09003,0.091118 -3.027252,1.7922501 -3.094552,1.7922501 -0.02286,0 -0.280521,-0.1983366 -0.572568,-0.4407481 -1.055808,-0.876364 -1.902712,-1.1812889 -3.280934,-1.1812889 -1.359773,0 -2.1926208,0.3023663 -3.261638,1.1841415 -0.2919846,0.2408425 -0.5426341,0.4378955 -0.5569988,0.4378955 -0.014365,0 -0.6813868,-0.3678806 -1.4822713,-0.8175124 z"
     id="path270" />
  <path
     style="fill:#008000;stroke-width:0.121653"
     d="M 11.192055,15.041178 C 10.300229,14.792909 9.5451004,14.116065 9.1082289,13.173384 8.92131,12.770051 8.8849637,12.581194 8.8829973,12.003074 8.8809374,11.397455 8.9112216,11.2492 9.1322822,10.782704 9.5697677,9.859497 10.169763,9.3203921 11.117679,8.9987948 c 2.028815,-0.6883113 4.282171,1.2014612 4.011907,3.3645782 -0.07678,0.614563 -0.526183,1.486056 -0.983843,1.907913 -0.79245,0.730455 -1.981771,1.040456 -2.953688,0.769892 z"
     id="path272" />
</svg>
