<?xml version="1.0" encoding="UTF-8" standalone="no"?>
<svg
   width="24px"
   height="24px"
   viewBox="0 0 24 24"
   stroke-width="1.5"
   fill="none"
   color="#000000"
   version="1.1"
   id="svg6"
   sodipodi:docname="3d-add-hole-gray.svg"
   inkscape:version="1.2.1 (9c6d41e410, 2022-07-14)"
   xmlns:inkscape="http://www.inkscape.org/namespaces/inkscape"
   xmlns:sodipodi="http://sodipodi.sourceforge.net/DTD/sodipodi-0.dtd"
   xmlns="http://www.w3.org/2000/svg"
   xmlns:svg="http://www.w3.org/2000/svg">
  <defs
     id="defs10" />
  <sodipodi:namedview
     id="namedview8"
     pagecolor="#ffffff"
     bordercolor="#000000"
     borderopacity="0.25"
     inkscape:showpageshadow="2"
     inkscape:pageopacity="0.0"
     inkscape:pagecheckerboard="0"
     inkscape:deskcolor="#d1d1d1"
     showgrid="false"
     inkscape:zoom="34.875"
     inkscape:cx="11.985663"
     inkscape:cy="12.014337"
     inkscape:window-width="1920"
     inkscape:window-height="1017"
     inkscape:window-x="-8"
     inkscape:window-y="-8"
     inkscape:window-maximized="1"
     inkscape:current-layer="svg6" />
  <path
     d="M12 16a4 4 0 100-8 4 4 0 000 8z"
     stroke="#000000"
     stroke-width="1.5"
     stroke-linecap="round"
     stroke-linejoin="round"
     id="path2" />
  <path
     d="M21 7.353v9.294a.6.6 0 01-.309.525l-8.4 4.666a.6.6 0 01-.582 0l-8.4-4.666A.6.6 0 013 16.647V7.353a.6.6 0 01.309-.524l8.4-4.667a.6.6 0 01.582 0l8.4 4.667a.6.6 0 01.309.524zM3.528 7.294L8.4 10m12.1-2.722L15.6 10M12 21v-5"
     stroke="#000000"
     stroke-width="1.5"
     stroke-linecap="round"
     stroke-linejoin="round"
     id="path4" />
  <path
     style="fill:#999999;stroke-width:0.0430108"
     d="M 11.584229,22.571786 C 11.371663,22.497965 2.9910184,17.848834 2.7788623,17.687042 2.6060131,17.555226 2.4318607,17.323098 2.3455227,17.109445 L 2.2795699,16.946237 V 12 7.0537634 l 0.065953,-0.163208 C 2.4314656,6.6778796 2.6060926,6.4445471 2.7752303,6.3163905 2.9882098,6.1550148 11.376264,1.5004129 11.584229,1.4282028 c 0.254678,-0.08843 0.576874,-0.088428 0.831542,4.9e-6 0.192112,0.066711 8.380246,4.5980627 8.721616,4.8265837 0.183687,0.1229643 0.369704,0.3294268 0.462654,0.5135051 0.140732,0.2787059 0.136087,0.086012 0.127963,5.3090905 l -0.0076,4.86885 -0.0665,0.164674 c -0.09972,0.246941 -0.292785,0.484447 -0.514427,0.632852 -0.342543,0.229359 -8.530789,4.76103 -8.723731,4.828029 -0.254685,0.08844 -0.576872,0.08844 -0.831542,-6e-6 z m -0.315412,-3.857225 v -2.03096 l -0.236559,-0.05 C 10.52141,16.525634 9.904166,16.273866 9.4654853,15.994534 8.7506561,15.539363 8.088646,14.791374 7.7293758,14.032947 7.2315277,12.981979 7.133918,11.767107 7.4593199,10.671763 c 0.069566,-0.23417 0.078282,-0.292808 0.047672,-0.320754 -0.052146,-0.04761 -3.7181703,-2.0786076 -3.7519575,-2.0786076 -0.017343,0 -0.02708,1.5268496 -0.026468,4.1505376 l 9.672e-4,4.150538 3.7481369,2.082981 c 2.0614752,1.145639 3.7578145,2.084349 3.7696425,2.086021 0.01183,0.0017 0.0215,-0.910891 0.0215,-2.027918 z m 5.256378,-0.06223 3.745129,-2.078853 0.001,-4.150538 c 6.56e-4,-2.6237379 -0.0091,-4.1505376 -0.0264,-4.1505376 -0.03379,0 -3.699812,2.0310006 -3.751958,2.0786076 -0.03061,0.02795 -0.02189,0.08658 0.04767,0.320754 0.262259,0.882798 0.248496,1.900962 -0.0375,2.774023 -0.535317,1.63418 -1.92579,2.872291 -3.59444,3.200578 l -0.17756,0.03493 v 2.034502 c 0,1.118975 0.011,2.0302 0.02444,2.024943 0.01344,-0.0053 1.70975,-0.945042 3.76957,-2.088411 z m -4.123761,-3.415299 c 1.071786,-0.131344 2.041517,-0.816833 2.530824,-1.789002 0.105197,-0.209009 0.228204,-0.598276 0.279379,-0.884125 0.0664,-0.370904 0.04667,-1.014161 -0.0414,-1.349601 C 14.753981,9.6288143 13.279768,8.5887071 11.6845,8.7549947 10.29282,8.9000605 9.207692,9.834193 8.825748,11.215951 8.7717864,11.411168 8.7635788,11.514677 8.7635788,12 c 0,0.618064 0.025549,0.76292 0.2199564,1.247098 0.5368983,1.337161 1.9640988,2.168091 3.4178988,1.989934 z M 8.5659438,8.7580832 C 9.2917184,8.0006787 10.123579,7.5469829 11.175676,7.3347386 c 0.391243,-0.078927 1.324565,-0.070191 1.72755,0.016171 0.988067,0.2117474 1.733188,0.6163327 2.448735,1.3296115 L 15.750517,9.0778136 17.56501,8.0704152 C 18.562982,7.5163458 19.40156,7.0468889 19.428518,7.0271771 19.470813,6.9962497 18.974261,6.7117342 15.805564,4.9512912 13.785982,3.8292656 12.101464,2.896604 12.062191,2.8787097 11.99659,2.8488198 11.687396,3.0146227 8.2589408,4.9181772 6.206427,6.0577786 4.5375326,7.0005804 4.550287,7.0132923 c 0.022653,0.022578 3.684505,2.061822 3.7025787,2.0619246 0.00503,2.87e-5 0.1459111,-0.1426816 0.3130781,-0.3171337 z"
     id="path392" />
</svg>
